<?xml version="1.0" encoding="UTF-8" standalone="no"?>
<!-- Created with Inkscape (http://www.inkscape.org/) -->

<svg
   width="64pt"
   height="64pt"
   viewBox="0 0 22.577778 22.577778"
   version="1.1"
   id="svg831"
   inkscape:version="1.1.2 (b8e25be833, 2022-02-05)"
   sodipodi:docname="Export - Unblash - 64px.svg"
   inkscape:export-filename="E:\Icon Design\TR Icon Design Project\Carlos - Icon Design Project\2023\Januari 2023\Done\Filedline\19 - Synthetic Ecology.png"
   inkscape:export-xdpi="576"
   inkscape:export-ydpi="576"
   xmlns:inkscape="http://www.inkscape.org/namespaces/inkscape"
   xmlns:sodipodi="http://sodipodi.sourceforge.net/DTD/sodipodi-0.dtd"
   xmlns="http://www.w3.org/2000/svg"
   xmlns:svg="http://www.w3.org/2000/svg"
   xmlns:rdf="http://www.w3.org/1999/02/22-rdf-syntax-ns#"
   xmlns:cc="http://creativecommons.org/ns#"
   xmlns:dc="http://purl.org/dc/elements/1.1/">
  <defs
     id="defs825">
    <pattern
       id="EMFhbasepattern"
       patternUnits="userSpaceOnUse"
       width="6"
       height="6"
       x="0"
       y="0" />
    <pattern
       id="EMFhbasepattern-9"
       patternUnits="userSpaceOnUse"
       width="6"
       height="6"
       x="0"
       y="0" />
    <pattern
       id="EMFhbasepattern-0"
       patternUnits="userSpaceOnUse"
       width="6"
       height="6"
       x="0"
       y="0" />
    <pattern
       id="EMFhbasepattern-7"
       patternUnits="userSpaceOnUse"
       width="6"
       height="6"
       x="0"
       y="0" />
    <pattern
       id="EMFhbasepattern-2"
       patternUnits="userSpaceOnUse"
       width="6"
       height="6"
       x="0"
       y="0" />
    <pattern
       id="EMFhbasepattern-98"
       patternUnits="userSpaceOnUse"
       width="6"
       height="6"
       x="0"
       y="0" />
    <pattern
       id="EMFhbasepattern-6"
       patternUnits="userSpaceOnUse"
       width="6"
       height="6"
       x="0"
       y="0" />
    <pattern
       id="EMFhbasepattern-01"
       patternUnits="userSpaceOnUse"
       width="6"
       height="6"
       x="0"
       y="0" />
    <pattern
       id="EMFhbasepattern-07"
       patternUnits="userSpaceOnUse"
       width="6"
       height="6"
       x="0"
       y="0" />
    <pattern
       id="EMFhbasepattern-8"
       patternUnits="userSpaceOnUse"
       width="6"
       height="6"
       x="0"
       y="0" />
    <pattern
       id="EMFhbasepattern-4"
       patternUnits="userSpaceOnUse"
       width="6"
       height="6"
       x="0"
       y="0" />
    <pattern
       id="EMFhbasepattern-40"
       patternUnits="userSpaceOnUse"
       width="6"
       height="6"
       x="0"
       y="0" />
    <pattern
       id="EMFhbasepattern-08"
       patternUnits="userSpaceOnUse"
       width="6"
       height="6"
       x="0"
       y="0" />
    <pattern
       id="EMFhbasepattern-04"
       patternUnits="userSpaceOnUse"
       width="6"
       height="6"
       x="0"
       y="0" />
    <pattern
       id="EMFhbasepattern-014"
       patternUnits="userSpaceOnUse"
       width="6"
       height="6"
       x="0"
       y="0" />
    <pattern
       id="EMFhbasepattern-27"
       patternUnits="userSpaceOnUse"
       width="6"
       height="6"
       x="0"
       y="0" />
    <pattern
       id="EMFhbasepattern-09"
       patternUnits="userSpaceOnUse"
       width="6"
       height="6"
       x="0"
       y="0" />
    <pattern
       id="EMFhbasepattern-5"
       patternUnits="userSpaceOnUse"
       width="6"
       height="6"
       x="0"
       y="0" />
    <pattern
       id="EMFhbasepattern-018"
       patternUnits="userSpaceOnUse"
       width="6"
       height="6"
       x="0"
       y="0" />
  </defs>
  <sodipodi:namedview
     id="base"
     pagecolor="#ffffff"
     bordercolor="#666666"
     borderopacity="1.0"
     inkscape:pageopacity="0.0"
     inkscape:pageshadow="2"
     inkscape:zoom="3.7537427"
     inkscape:cx="38.228513"
     inkscape:cy="54.612161"
     inkscape:document-units="pt"
     inkscape:current-layer="layer1"
     showgrid="false"
     units="pt"
     inkscape:window-width="958"
     inkscape:window-height="1041"
     inkscape:window-x="0"
     inkscape:window-y="0"
     inkscape:window-maximized="0"
     inkscape:pagecheckerboard="true"
     inkscape:showpageshadow="false"
     inkscape:object-paths="true"
     inkscape:snap-intersection-paths="true"
     inkscape:snap-smooth-nodes="true"
     inkscape:snap-midpoints="true"
     showguides="true"
     inkscape:snap-bbox="true"
     inkscape:bbox-nodes="true"
     inkscape:snap-nodes="false"
     inkscape:snap-global="true"
     inkscape:snap-others="false">
    <inkscape:grid
       type="xygrid"
       id="grid1378" />
    <sodipodi:guide
       position="0.97013831,21.607643"
       orientation="78.000048,0"
       id="guide1380"
       inkscape:locked="false" />
    <sodipodi:guide
       position="0.97013831,0.97013129"
       orientation="0,78.000005"
       id="guide1382"
       inkscape:locked="false" />
    <sodipodi:guide
       position="21.607639,0.97013129"
       orientation="-78.000048,0"
       id="guide1384"
       inkscape:locked="false" />
    <sodipodi:guide
       position="21.607639,21.607643"
       orientation="0,-78.000005"
       id="guide1386"
       inkscape:locked="false" />
  </sodipodi:namedview>
  <metadata
     id="metadata828">
    <rdf:RDF>
      <cc:Work
         rdf:about="">
        <dc:format>image/svg+xml</dc:format>
        <dc:type
           rdf:resource="http://purl.org/dc/dcmitype/StillImage" />
      </cc:Work>
    </rdf:RDF>
  </metadata>
  <g
     inkscape:label="Icon"
     inkscape:groupmode="layer"
     id="layer1"
     transform="translate(0,-274.42223)">
    <g
       id="g728"
       style="display:inline;stroke-width:0.794878"
       transform="matrix(1.2580546,0,0,1.2580546,-76.110277,-156.83431)">
      <path
         style="color:#000000;fill:#9a605a;stroke-width:0.794878;stroke-linecap:round;stroke-linejoin:round;-inkscape-stroke:none"
         d="m 68.083984,346.21289 a 0.26460996,0.26460996 0 0 0 -0.265625,0.26367 v 0.5293 c 0,0.43524 0.359678,0.79492 0.794922,0.79492 0.435244,0 0.792969,-0.35968 0.792969,-0.79492 v -0.5293 a 0.26460996,0.26460996 0 0 0 -0.263672,-0.26367 z"
         id="path1881237" />
      <path
         style="color:#000000;fill:#9a605a;stroke-width:0.794878;stroke-linecap:round;stroke-linejoin:round;-inkscape-stroke:none"
         d="m 69.935547,346.21289 a 0.26460996,0.26460996 0 0 0 -0.265625,0.26367 v 0.5293 c -3e-6,0.43524 0.359677,0.79492 0.794922,0.79492 0.435245,0 0.792971,-0.35968 0.792968,-0.79492 v -0.5293 a 0.26460996,0.26460996 0 0 0 -0.263671,-0.26367 z"
         id="path1881243" />
      <path
         style="color:#000000;fill:#9a605a;stroke-width:0.794878;stroke-linecap:round;stroke-linejoin:round;-inkscape-stroke:none"
         d="m 71.787109,346.21289 a 0.26460996,0.26460996 0 0 0 -0.263672,0.26367 v 0.5293 c -10e-7,0.43524 0.357724,0.79492 0.792969,0.79492 0.435245,0 0.794925,-0.35968 0.794922,-0.79492 v -0.5293 a 0.26460996,0.26460996 0 0 0 -0.265625,-0.26367 z"
         id="path1881249" />
      <path
         style="color:#000000;fill:#9a605a;stroke-width:0.794878;stroke-linecap:round;stroke-linejoin:round;-inkscape-stroke:none"
         d="m 66.099609,346.21289 a 0.26460996,0.26460996 0 0 0 -0.265625,0.26367 v 0.5293 c 0,0.43524 0.359678,0.79492 0.794922,0.79492 0.435244,0 0.792969,-0.35968 0.792969,-0.79492 v -0.5293 a 0.26460996,0.26460996 0 0 0 -0.263672,-0.26367 z"
         id="path1881255" />
      <path
         style="color:#000000;fill:#cccccc;stroke-width:0.794878;stroke-linecap:round;stroke-linejoin:round;-inkscape-stroke:none"
         d="m 62.691406,345.1543 a 0.26460996,0.26460996 0 0 0 -0.263672,0.25586 l -0.03711,1.05859 a 0.26460996,0.26460996 0 0 0 0.263672,0.27344 h 13.697265 a 0.26460996,0.26460996 0 0 0 0.263672,-0.26563 v -1.05859 a 0.26460996,0.26460996 0 0 0 -0.263672,-0.26367 z"
         id="path1879596" />
      <path
         style="color:#000000;fill:#4f697d;stroke-width:0.794878;stroke-linecap:round;stroke-linejoin:round;-inkscape-stroke:none"
         d="m 70.464844,351.24023 c -0.654428,0 -1.191407,0.53503 -1.191407,1.18946 0,0.65443 0.536979,1.1914 1.191407,1.1914 0.654428,0 1.189452,-0.53697 1.189453,-1.1914 -10e-7,-0.65443 -0.535025,-1.18946 -1.189453,-1.18946 z"
         id="path1881963" />
      <path
         style="color:#000000;fill:#4f697d;stroke-width:0.794878;stroke-linecap:round;stroke-linejoin:round;-inkscape-stroke:none"
         d="m 68.613281,351.24023 c -0.654429,0 -1.191406,0.53503 -1.191406,1.18946 0,0.65443 0.536977,1.1914 1.191406,1.1914 0.654428,0 1.189453,-0.53697 1.189453,-1.1914 0,-0.65443 -0.535025,-1.18946 -1.189453,-1.18946 z"
         id="path1881957" />
      <path
         style="color:#000000;fill:#4f697d;stroke-width:0.794878;stroke-linecap:round;stroke-linejoin:round;-inkscape-stroke:none"
         d="m 73.412109,351.0957 c -0.632131,0.16938 -1.011178,0.8249 -0.841797,1.45703 0.169386,0.63212 0.826856,1.01118 1.458985,0.8418 0.632128,-0.16938 1.011172,-0.8249 0.841797,-1.45703 -0.169379,-0.63213 -0.826854,-1.01118 -1.458985,-0.8418 z"
         id="path1881969" />
      <path
         style="color:#000000;fill:#4f697d;stroke-width:0.794878;stroke-linecap:round;stroke-linejoin:round;-inkscape-stroke:none"
         d="m 66.628906,351.24023 c -0.654429,0 -1.191406,0.53503 -1.191406,1.18946 0,0.65443 0.536977,1.1914 1.191406,1.1914 0.654428,0 1.189453,-0.53697 1.189453,-1.1914 0,-0.65443 -0.535025,-1.18946 -1.189453,-1.18946 z"
         id="path1881951" />
      <path
         style="color:#000000;fill:#9a605a;stroke-width:0.794878;stroke-linecap:round;stroke-linejoin:round;-inkscape-stroke:none"
         d="m 62.328125,355.20898 a 0.26460996,0.26460996 0 0 0 -0.263672,0.26368 v 3.43945 a 0.26460996,0.26460996 0 0 0 0.263672,0.26562 h 14.287109 a 0.26460996,0.26460996 0 0 0 0.265625,-0.26562 v -3.43945 a 0.26460996,0.26460996 0 0 0 -0.265625,-0.26368 z"
         id="path1882701" />
      <path
         style="color:#000000;fill:#ececec;stroke-width:0.794878;stroke-linecap:round;stroke-linejoin:round;-inkscape-stroke:none"
         d="m 62.064453,344.625 a 0.26460996,0.26460996 0 0 0 -0.265625,0.26367 v 10.58399 a 0.26460996,0.26460996 0 0 0 0.265625,0.26562 h 1.058594 a 0.26460996,0.26460996 0 0 0 0.263672,-0.26562 V 344.88867 A 0.26460996,0.26460996 0 0 0 63.123047,344.625 Z"
         id="path1879602" />
      <path
         style="color:#000000;fill:#bd887f;stroke-width:0.794878;stroke-linecap:round;stroke-linejoin:round;-inkscape-stroke:none"
         d="m 62.064453,343.83203 c -0.435243,0 -0.794924,0.35773 -0.794922,0.79297 v 0.26367 c -2e-6,0.43525 0.359679,0.79492 0.794922,0.79492 h 1.058594 c 0.435243,0 0.792971,-0.35967 0.792969,-0.79492 V 344.625 c 2e-6,-0.43524 -0.357726,-0.79297 -0.792969,-0.79297 z"
         id="path1879230" />
      <path
         style="color:#000000;fill:#ececec;stroke-width:0.794878;stroke-linecap:round;stroke-linejoin:round;-inkscape-stroke:none"
         d="m 75.822266,344.625 a 0.26460996,0.26460996 0 0 0 -0.263672,0.26367 v 10.58399 a 0.26460996,0.26460996 0 0 0 0.263672,0.26562 h 1.058593 a 0.26460996,0.26460996 0 0 0 0.263672,-0.26562 c 1.1e-4,-2.88565 1.8e-5,-7.36154 0,-10.58399 A 0.26460996,0.26460996 0 0 0 76.880859,344.625 Z"
         id="path1879608" />
      <path
         style="color:#000000;fill:#bd887f;stroke-width:0.794878;stroke-linecap:round;stroke-linejoin:round;-inkscape-stroke:none"
         d="m 75.822266,343.83203 c -0.435244,0 -0.792972,0.35773 -0.792969,0.79297 v 0.26367 c -3e-6,0.43525 0.357725,0.79492 0.792969,0.79492 h 1.058593 c 0.435244,0 0.792972,-0.35967 0.792969,-0.79492 V 344.625 c 3e-6,-0.43524 -0.357725,-0.79297 -0.792969,-0.79297 z"
         id="path1879236" />
      <path
         style="color:#000000;fill:#d0ad9b;stroke-width:0.794878;stroke-linecap:round;stroke-linejoin:round;-inkscape-stroke:none"
         d="m 64.558594,356.79492 a 0.26460996,0.26460996 0 0 0 -0.246094,0.16797 l -0.529297,1.32227 a 0.26460996,0.26460996 0 0 0 0.246094,0.36328 h 10.886719 a 0.26460996,0.26460996 0 0 0 0.246093,-0.36328 l -0.529297,-1.32227 a 0.26460996,0.26460996 0 0 0 -0.246093,-0.16797 z"
         id="path1882695" />
      <path
         style="color:#000000;fill:#bd887f;stroke-width:0.794878;stroke-linecap:round;stroke-linejoin:round;-inkscape-stroke:none"
         d="m 61.798828,354.67969 c -0.289119,0 -0.529297,0.24018 -0.529297,0.52929 v 0.5293 c 0,0.28912 0.240178,0.5293 0.529297,0.5293 h 15.345703 c 0.289119,0 0.529293,-0.24019 0.529297,-0.5293 v -0.5293 c -4e-6,-0.28911 -0.240178,-0.52929 -0.529297,-0.52929 z"
         id="path1882689" />
      <path
         style="color:#000000;fill:#bd887f;stroke-width:0.794878;stroke-linecap:round;stroke-linejoin:round;-inkscape-stroke:none"
         d="m 61.798828,358.11914 c -0.289107,0 -0.529297,0.24018 -0.529297,0.5293 v 0.52929 c 0,0.28912 0.240178,0.5293 0.529297,0.5293 h 15.345703 c 0.289119,0 0.529297,-0.24018 0.529297,-0.5293 v -0.52929 c 0,-0.28912 -0.24019,-0.5293 -0.529297,-0.5293 z"
         id="path1882707" />
      <path
         id="path61848"
         style="color:#000000;display:inline;fill:#000000;stroke-width:0.794878;stroke-linecap:round;stroke-linejoin:round;-inkscape-stroke:none"
         d="m 62.044277,343.83228 c -0.42605,0.0109 -0.774631,0.36428 -0.774631,0.79271 v 0.26355 c 0,0.34229 0.222464,0.63764 0.529167,0.74828 v 9.04286 c -0.289118,0 -0.529167,0.24005 -0.529167,0.52916 v 0.52969 c 0,0.28912 0.240049,0.52917 0.529167,0.52917 h 0.265618 v 1.85156 h -0.265618 c -0.289108,0 -0.529167,0.24005 -0.529167,0.52917 v 0.52916 c 0,0.28913 0.240049,0.52969 0.529167,0.52969 h 15.345833 c 0.289121,0 0.529167,-0.24056 0.529167,-0.52969 v -0.52916 c 0,-0.28912 -0.240059,-0.52917 -0.529167,-0.52917 h -0.263548 v -1.85156 h 0.263548 c 0.289121,0 0.529164,-0.24006 0.529167,-0.52917 v -0.52969 c -3e-6,-0.28911 -0.240046,-0.52916 -0.529167,-0.52916 9.6e-5,-2.76666 2.2e-5,-5.97468 0,-9.04183 0.307155,-0.1101 0.52917,-0.40632 0.529167,-0.74931 v -0.26355 c 3e-6,-0.43523 -0.35747,-0.79271 -0.792715,-0.79271 h -1.05885 c -0.435245,0 -0.79272,0.35748 -0.792718,0.79271 v 0.26355 c 0,0.0929 0.01614,0.18238 0.04599,0.26562 H 64.445165 c -0.145521,5.3e-4 -0.263269,0.11855 -0.263552,0.26407 -5.29e-4,0.14613 0.117425,0.26505 0.263552,0.26561 h 11.113532 v 0.52917 H 63.386831 v -0.57516 c 0.307153,-0.1101 0.529167,-0.40632 0.529167,-0.74931 v -0.26355 c 0,-0.43523 -0.357476,-0.79271 -0.792718,-0.79271 z m 1.078984,0.52917 c 0.14926,0 0.263552,0.11429 0.263552,0.26354 v 0.26355 c 0,0.14927 -0.114292,0.26562 -0.263552,0.26562 h -1.058849 c -0.149259,0 -0.265618,-0.11635 -0.265618,-0.26562 v -0.26355 c 0,-0.14459 0.106,-0.26354 0.258641,-0.26354 z m 12.685025,0.79271 c -0.142409,-0.007 -0.249597,-0.12102 -0.249597,-0.26562 v -0.26355 c 0,-0.14459 0.107188,-0.25669 0.249597,-0.26354 h 1.072793 c 0.14926,0 0.263552,0.11429 0.263549,0.26354 v 0.26355 c 3e-6,0.14927 -0.114289,0.26562 -0.263549,0.26562 z m -13.480315,0.52968 h 0.529686 v 5.02709 c 5.29e-4,0.14618 0.119441,0.26413 0.265615,0.26355 0.145415,-5.3e-4 0.263049,-0.11814 0.263551,-0.26355 v -3.96875 h 2.447396 v 0.26355 c 0,0.34233 0.222385,0.63768 0.529167,0.74827 v 3.51607 c -0.528159,0.12131 -0.926042,0.59631 -0.926042,1.15962 0,0.65443 0.537229,1.19165 1.191657,1.19165 0.412853,0 0.778211,-0.21379 0.991672,-0.53588 0.214056,0.32195 0.579953,0.53588 0.992703,0.53588 0.372774,0 0.706536,-0.17453 0.92501,-0.44545 0.21902,0.27092 0.553784,0.44545 0.926558,0.44545 0.654428,0 1.18959,-0.53722 1.18959,-1.19165 0,-0.56387 -0.397499,-1.03942 -0.926041,-1.16014 v -3.51451 c 0.307154,-0.11011 0.529169,-0.40634 0.529166,-0.74931 v -0.26355 h 0.265618 v 0.26355 c 0,0.36498 0.251751,0.67726 0.589627,0.76843 l 0.09612,0.31574 c 0.04268,0.13963 0.190532,0.21822 0.330211,0.1757 0.139628,-0.0427 0.218215,-0.19053 0.175699,-0.33021 l -0.06356,-0.20981 c 0.270494,-0.12759 0.459923,-0.40383 0.45992,-0.71985 v -0.26355 h 2.447396 v 7.9375 H 63.386823 v -1.58802 c 5.3e-4,-0.14618 -0.117371,-0.26512 -0.263551,-0.26562 -0.146942,-5.3e-4 -0.266197,0.11868 -0.265615,0.26562 v 1.58802 h -0.529686 z m 13.759885,0 h 0.527616 c 2.1e-5,3.05317 9.5e-5,6.24328 0,8.99584 h -0.527616 z m -9.72447,1.05834 h 0.529167 v 0.26355 c 0,0.14926 -0.114295,0.26561 -0.263552,0.26561 -0.149257,0 -0.265615,-0.11635 -0.265615,-0.26561 z m 1.058333,0 h 0.396875 v 0.26355 c 0,0.34233 0.222385,0.63768 0.529167,0.74827 v 3.51607 c -0.301509,0.0693 -0.560284,0.25399 -0.727088,0.50436 -0.166643,-0.25092 -0.426075,-0.43589 -0.72812,-0.50488 v -3.51451 c 0.307152,-0.11011 0.529166,-0.40634 0.529166,-0.74931 z m 0.926042,0 h 0.529167 v 0.26355 c 0,0.14926 -0.114295,0.26561 -0.263552,0.26561 -0.149256,0 -0.265615,-0.11635 -0.265615,-0.26561 z m 1.058333,0 h 0.264065 v 0.26355 c -2e-6,0.34233 0.222385,0.63768 0.529167,0.74827 v 3.51607 c -0.264139,0.0607 -0.495448,0.21008 -0.66094,0.41444 -0.165409,-0.20477 -0.396864,-0.35452 -0.661458,-0.41496 v -3.51451 c 0.307152,-0.11011 0.529166,-0.40634 0.529166,-0.74931 z m 0.793232,0 h 0.529167 v 0.26355 c 2e-6,0.14926 -0.114293,0.26561 -0.263549,0.26561 -0.14926,0 -0.265618,-0.11635 -0.265618,-0.26561 z m 1.853634,0 h 0.529166 v 0.26355 c 3e-6,0.14926 -0.116358,0.26561 -0.265615,0.26561 -0.149259,0 -0.263551,-0.11635 -0.263551,-0.26561 z m 0.62942,1.72082 c -0.02601,-1.5e-4 -0.05288,0.003 -0.07907,0.0114 -0.139634,0.0427 -0.21822,0.19053 -0.175699,0.33021 l 0.144693,0.47646 c 0.04268,0.13963 0.190531,0.21874 0.330213,0.17622 0.139634,-0.0427 0.21822,-0.19054 0.175699,-0.33022 l -0.144693,-0.47645 c -0.03468,-0.11345 -0.138437,-0.18693 -0.251147,-0.18759 z m 0.28422,1.20509 c -0.139633,0.0427 -0.21822,0.19002 -0.175701,0.3297 l 0.146761,0.47697 c 0.04268,0.13963 0.190016,0.21822 0.329698,0.1757 0.139631,-0.0427 0.218736,-0.19053 0.176215,-0.33021 l -0.146762,-0.47646 c -0.03468,-0.11345 -0.138438,-0.18693 -0.251148,-0.18758 -0.02601,-1.5e-4 -0.05287,0.004 -0.07906,0.0119 z m 0.187585,1.52136 0.0026,0.008 c -0.474046,0.25557 -0.731609,0.81402 -0.586528,1.35547 0.169386,0.63212 0.826696,1.01119 1.458825,0.84181 0.63213,-0.16938 1.011185,-0.82463 0.841809,-1.45676 -0.146626,-0.54722 -0.65896,-0.90479 -1.20406,-0.88108 l -0.0067,-0.0217 c -0.04618,-0.17234 -0.191278,-0.21293 -0.330242,-0.1757 -0.13966,0.0427 -0.218247,0.19052 -0.175728,0.3302 z m -9.160156,0.36121 c 0.175818,0.17076 0.399251,0.30434 0.642855,0.39481 0.136988,0.0504 0.288907,-0.0197 0.339514,-0.15658 0.05065,-0.13625 -0.01812,-0.28786 -0.153996,-0.33951 -0.181282,-0.0673 -0.347069,-0.1689 -0.458888,-0.2775 -0.111818,-0.11182 -0.287046,-0.0819 -0.37311,0.004 -0.102653,0.10439 -0.101031,0.27228 0.0036,0.37466 z m -0.898663,-0.13074 c -0.06377,-9e-5 -0.125431,0.0228 -0.173632,0.0646 -0.110567,0.0955 -0.122828,0.2625 -0.02739,0.3731 0.44506,0.51402 1.023141,0.93562 1.744077,1.13637 0.140867,0.0397 0.287206,-0.0425 0.326597,-0.18345 0.03933,-0.14086 -0.04307,-0.28691 -0.183968,-0.32608 -0.607393,-0.16913 -1.094962,-0.52068 -1.486215,-0.97255 -0.05002,-0.0581 -0.122793,-0.0917 -0.199472,-0.092 z m 11.263914,0.65423 c 0.09536,0.35589 -0.110747,0.71543 -0.466638,0.8108 -0.355888,0.0954 -0.715441,-0.11283 -0.810805,-0.4687 -0.09536,-0.35592 0.11126,-0.71338 0.467156,-0.80874 0.348774,-0.0935 0.724443,0.14626 0.810287,0.46664 z m -7.730279,-0.30438 c 0.368448,0 0.659908,0.29146 0.659908,0.65991 0,0.36845 -0.29146,0.66198 -0.659908,0.66198 -0.368448,0 -0.661974,-0.29353 -0.661974,-0.66198 0,-0.36845 0.293526,-0.65991 0.661974,-0.65991 z m 1.984375,0 c 0.368448,0 0.659908,0.29146 0.659908,0.65991 0,0.36845 -0.29146,0.66198 -0.659908,0.66198 -0.368448,0 -0.661974,-0.29353 -0.661974,-0.66198 0,-0.36845 0.293526,-0.65991 0.661974,-0.65991 z m 1.851568,0 c 0.368445,0 0.661974,0.29146 0.661974,0.65991 0,0.36845 -0.293529,0.66198 -0.661974,0.66198 -0.368448,0 -0.661975,-0.29353 -0.661975,-0.66198 0,-0.36845 0.293527,-0.65991 0.661975,-0.65991 z m -8.666139,3.43907 h 15.345834 v 0.52968 H 61.798805 Z m 0.794784,1.05885 h 13.757818 v 1.85157 h -1.255739 l -0.463021,-1.15652 c -0.03972,-0.10124 -0.137226,-0.16785 -0.24598,-0.16795 h -9.827824 c -0.108754,1e-4 -0.206777,0.0667 -0.246496,0.16795 l -0.463021,1.15652 h -1.255737 z m 2.144573,1.05678 h 9.468673 l 0.317809,0.79479 H 64.420352 Z m -2.939357,1.32395 h 15.345834 v 0.52917 H 61.798805 Z"
         sodipodi:nodetypes="cssccsssccssssssssccsssccssssssccccccccssccssssssscscscccsccccccccsccsscscssccsccscccccsccccccccccccccccccsscccccccccsccccsscccccccccsccccssccccsscsccccccssccsccsccccscccccccsccccccccsscssssscsscccsscccccccccccccccccccccccccccccccccccccc" />
    </g>
  </g>
</svg>
